<?xml version="1.0" encoding="UTF-8" standalone="no"?>
<svg xmlns:rdf="http://www.w3.org/1999/02/22-rdf-syntax-ns#" xmlns="http://www.w3.org/2000/svg" xml:space="preserve" height="182.87" viewBox="0 0 200.36868 182.87477" width="200.37" version="1.1" xmlns:cc="http://creativecommons.org/ns#" xmlns:xlink="http://www.w3.org/1999/xlink" xmlns:dc="http://purl.org/dc/elements/1.1/"><g transform="matrix(1.25 0 0 -1.25 -756.63 734.86)"><g transform="translate(.78596 .52397)"><path d="m753.27 465.94h-146.34v-22.761h146.34v22.761z" stroke="#960d32" stroke-width="3.1683" fill="none"/><path d="m1.9902 1.9902v22.984h10.52v94.68h-10.52v22.982h70.891l14.402-14.566v-53.572l-10.195-10.52 10.195-10.195v-37.871l-14.244-13.922h-71.049zm95.18 0v22.984h10.52v103.58l14.402 14.082h49.688l14.082-14.082v-103.58h10.518v-22.984h-44.021v22.984h10.521v94.68h-32.207v-94.68h10.518v-22.984h-44.02zm-61.678 22.984h28.809v29.291h-28.809v-29.291zm0 52.438h28.809v42.242h-28.809v-42.242zm-31.59 74.968v24.578h180.08v-24.578h-180.08z" transform="matrix(.8 0 0 -.8 605.3 586.29)" fill="#c00"/><path d="m1.9902 1.9902v22.984h10.52v94.68h-10.52v22.982h70.891l14.402-14.566v-53.572l-10.195-10.52 10.195-10.195v-37.871l-14.244-13.922h-71.049zm95.18 0v22.984h10.52v103.58l14.402 14.082h49.688l14.082-14.082v-103.58h10.518v-22.984h-44.021v22.984h10.521v94.68h-32.207v-94.68h10.518v-22.984h-44.02zm-61.678 22.984h28.811v29.291h-28.811v-29.291zm0 52.438h28.811v42.242h-28.811v-42.242z" transform="matrix(.8 0 0 -.8 605.3 586.29)" stroke="#960d32" stroke-width="3.98" fill="none"/><g><path d="m8.4805 158.86v2.1895h1v9.0078h-1v2.1875h6.7441l1.3711-1.3867v-5.0996l-0.96875-0.99805 0.96875-0.96875v-3.6074l-1.3535-1.3242h-6.7617zm11.994 0-1.416 1.4473v10.488l1.3418 1.4492h4.3418l1.4316-1.4492v-10.488l-1.4004-1.4473h-4.2988zm9.3496 0-1.1855 1.1699v5.1309l1.2461 1.2461h3.8672v3.6504h-2.9277v-1.6152h-2.1855v2.3691l1.4473 1.4336h4.25l1.6035-1.6484v-5.0977l-1.25-1.2637h-3.8652v-3.1855h2.9277v1.5684h2.1875v-2.5547l-1.2324-1.2031h-4.8828zm8.5762 0v4.7754h2.1113v-2.5859h1.3555v9.0078h-1v2.1875h4.1875v-2.1875h-1v-9.0078h1.3535v2.5859h2.1113v-4.7754h-9.1191zm13 0-1.418 1.4473v10.488l1.3418 1.4492h4.3418l1.4336-1.4492v-10.488l-1.4043-1.4473h-4.2949zm8.1602 0v2.1895h1.002v9.0078h-1.002v2.1875h4.1895v-2.1875h-1.002v-5.2969l3.1895 7.4844h2.002v-11.195h1v-2.1895h-4.1875v2.1895h1.002v5.5449l-3.2188-7.7344h-2.9746zm17.418 0v2.1895h1.002v9.8516l1.3711 1.3438h4.7266l1.3398-1.3438v-9.8516h1.002v-2.1895h-4.1895v2.1895h1v9.0078h-3.0645v-9.0078h1.002v-2.1895h-4.1895zm11.904 0v2.1895h1v9.0078h-1v2.1875h4.1895v-2.1875h-1.002v-5.2969l3.1895 7.4844h2.002v-11.195h1v-2.1895h-4.1895v2.1895h1.002v5.5449l-3.2188-7.7344h-2.9727zm11.844 0v2.1895h0.99805v9.0078h-0.99805v2.1875h4.1875v-2.1875h-1.002v-9.0078h1.002v-2.1895h-4.1875zm6.6543 0v2.1895h0.90625l2.8184 11.195h2.3711l2.7402-11.195h1.0039v-2.1895h-4.2812v2.1895h1.0898l-1.7402 7.3144-1.7246-7.3144h1.0039v-2.1895h-4.1875zm12.303 0v2.1895h1.002v9.0078h-1.002v2.1875h8.1172v-4.959h-2.1894v2.7715h-2.7402v-4.0664h2.7402v-2.1992h-2.7402v-2.7422h2.7402v1.834h2.1894v-4.0234h-8.1172zm10.578 0v2.1895h1.002v9.0078h-1.002v2.1875h4.1914v-2.1875h-1.0039v-3.1562h0.75586l2.6172 5.3438h2.2207v-2.1875h-0.92383l-1.6035-3.1562h0.72266l1.1406-1.1856v-5.7617l-1.1406-1.0938h-6.9766zm12.432 0-1.1894 1.1699v5.1309l1.25 1.2461h3.8652v3.6504h-2.9258v-1.6152h-2.1894v2.3691l1.4492 1.4336h4.25l1.6016-1.6484v-5.0977l-1.248-1.2637h-3.8633v-3.1855h2.9258v1.5684h2.1856v-2.5547l-1.2305-1.2031h-4.8809zm8.5762 0v2.1895h1v9.0078h-1v2.1875h4.1914v-2.1875h-1.0039v-9.0078h1.0039v-2.1895h-4.1914zm6.6504 0v4.7754h2.1133v-2.5859h1.3535v9.0078h-1v2.1875h4.1875v-2.1875h-1v-9.0078h1.3555v2.5859h2.1094v-4.7754h-9.1191zm11.582 0v2.1895h0.97071l2.8496 5.4199v3.5879h-1v2.1875h4.1894v-2.1875h-1.0039v-3.6191l2.709-5.3887h0.8164v-2.1895h-4.0781v2.1895h0.93945l-1.5254 3.1094-1.5703-3.1094h1.0781v-2.1895h-4.375zm-157.83 2.1895h2.7402v2.7891h-2.7402v-2.7891zm9.5781 0h2.7422v9.0078h-2.7422v-9.0078zm30.924 0h2.7422v9.0078h-2.7422v-9.0078zm81.279 0h2.7441v3.6641h-2.7441v-3.6641zm-121.78 4.9883h2.7402v4.0195h-2.7402v-4.0195z" transform="matrix(.8 0 0 -.8 605.3 586.29)" fill="#fff"/><path d="m693.9 463.35-2.847 1.307s-2.559-3.593-4.126-5.158c-1.565-1.569-4.414-0.901-5.372-0.267-0.958 0.636-4.358 3.59-8.39 5.581-4.036 1.992-8.568 5.702-8.568 5.702-0.727 0.672-5.09 4.91-5.219 9.784-0.137 5.32 0.335 9.645 5.459 10.443l0.416 0.936-3.723 4.232 5.355-0.784 0.937 1.768s0.543 0.417 1.248 0.047 1.306-0.695 1.306-0.695l2.661 4.8s-0.891 1.896-2.568 4c-1.676 2.106-2.325 4.072-1.954 6.488 0.369 2.418 1.413 6.437 2.643 7.925 0.329-0.277-6.266 4.722-3.158 9.103 3.94 5.555 6.829 7.086 11.807 10.707 5.001 3.638 4.896 2.672 4.732 1.132-0.166-1.537-2.129-3.207-3.824-4.356 0.153 0.535-1.829-4.591-3.093-5.603 0.027-0.407-0.928-2.763-1.159-2.9 0 0 4.966 4.252 8.619 3.344 3.655-0.907 7.691-3.819 7.691-3.819s1.539-0.113 1.951-0.248c0 0-1.916 2.077 0.418 4.605 1.606 1.741 3.791 3.356 8.256 5.03 0.663 0.248 1.211-0.082 0.082-1.618-1.123-1.54-1.529-1.234-1.529-1.234s-0.755-2.193-1.534-3.429c-0.196-0.311-0.633-2.439-1.538-4.755 0 0 7.816-4.671 9.77-9.666 0.796-2.031 0.299-3.818-2.282-6.811 0 0 0.147-2.348-0.77-4.034 0 0 1.924-1.037 3.018-2.161 0 0 3.606-0.828 4.111-1.776 0.503-0.945 1.552-6.092 0.062-9.984-1.489-3.895-3.606-6.105-5.19-6.152 0 0-0.963-1.106-1.635-1.249-0.673-0.145-1.078 0.105-1.405-0.238-0.328-0.342-0.968-1.376-2.117-1.333-1.15 0.047-1.494 0.16-1.494 0.16s-3.244-1.607-4.339-1.788c0 0 5.847-4.252 6.327-14.632 0.213-4.62-2.787-4.328-4.517-3.847-1.486 0.413-3.907 1.235-4.518 1.443"/><path d="m686.8 529.48s8.886-8.69 9.558-12.385c0.162-0.902 0.154-2.079-0.842-1.354-0.997 0.725-4.913 3.179-5.637 3.504-0.726 0.325-1.001 0.331-0.544-0.509 0.462-0.839 1.923-3.563 5.644-6.802 3.72-3.238 4.504-3.938 4.696-4.586 0.189-0.65-0.381-2.94-0.649-3.348-0.271-0.405-1.508-0.482-2.481-0.644-0.976-0.162-3.429-1.219-5.51-3.537-0.457-0.51-0.935-0.618-2.152-1.078-1.22-0.459-3.858-2.133-4.481-4.829 0 0-2.382 3.693-4.349 4.343-1.965 0.65-2.31 1.103-3.368-0.163-1.057-1.268-2.298-3.26-2.405-5.771-0.107-2.515 0.352-5.185 1.728-6.667 1.376-1.487 2.181-2.292 2.724-2.211 0.542 0.082 3.049 2.732 3.673 2.967 0 0-0.813-0.898-0.841-1.244 0 0 2.243 1.083 4.133 0.73 0 0-0.163 1.376-0.136 1.673 0 0-1.889 0.379-3.13-0.134-1.24-0.514-3.217-1.375-3.997-1.404-0.779-0.026-1.774 0.624-2.264 1.756-0.486 1.131-0.514 1.646-0.514 1.646s0.644-1.756 1.35-2.189c0 0-1.405 3.537 0.459 8.232 0 0-1.083-1.002-1.729-2.486 0 0 0.671 2.898 2.541 3.971 0.888 0.508 1.538 0.19 1.349 0.027-0.189-0.164-0.516-0.325-0.516-0.325s0.997-0.645 1.349-1.131c0.354-0.489 0.493-0.407 0.975-0.544 0.482-0.133 1.208-1.721 1.695-2.426 0.488-0.704 1.296-1.32 1.783-1.537s0.921-0.839 0.921-0.839 0.021 1.539 0.644 1.999c0 0-0.677-2.778-0.299-4.86 0.38-2.078 1.678-5.853 4.539-6.34 2.859-0.488 6.741-0.217 9.573 1.728 2.834 1.941 5.022 4.398 6.803 8.367 0 0-0.188-2.026-1.672-3.755-0.154-0.176-0.136-0.616 0.271-0.806 0.406-0.189 1.889-0.731 1.889-0.731s0.595-0.075 1.43 0.651c0.834 0.724 3.314 3.238 3.775 7.636 0.462 4.396-0.349 6.498-1.104 6.823-0.759 0.324-3.186 1.51-6.316 1.457-3.131-0.056-6.611-0.402-6.611-0.402s2.995 1.05 8.258 0.889c0 0-2.054 1.131-6.124 1.728 0 0 0.085 2.404 0.488 3.292 0.399 0.887 1.827 2.507 2.425 3.936 0.595 1.431 1.32 4.237 1.346 4.804 0.027 0.57-0.194 1.083-0.46 0.381-0.264-0.706-1.024-2.617-1.266-2.861-0.244-0.243-0.591-0.141-0.698 0.32-0.108 0.46-0.923 3.854-2.405 6.341-1.484 2.485-3.609 5.076-6.58 5.373 0 0 3.205-2.541 3.639-3.753 0 0-3.048 2.941-6.288 4.856-3.239 1.919-4.29 2.221-4.29 2.221" fill="#fff"/><path d="m684.8 510.52 2.665-1.865s0.736-0.994 0.593-2.204c-0.172-1.431-0.436-3.173-1.756-3.838l-2.46-0.958s-1.646 1.805-1.574 3.743c0.072 1.937 0.957 4.383 2.532 5.122" fill="#939598"/><path d="m698.99 530.87s0.22-2.229-0.493-4.167c0 0 0.602 1.243 0.804 2.632 0 0 0.147-0.475 0.092-0.787 0 0 0.329 1.738 0.419 2.558 0 0 0.877 0.551 1.209 2.706 0 0 1.662 1.022 2.047 1.716 0 0-2.589-1.124-5.101-3.104-2.413-1.901-3.072-3.636-3.072-3.636s-0.145-0.987 0.915-2.304c0 0 0.587 1.352 1.481 2.54 0.896 1.189 2.119 2.596 2.485 2.887 0 0-0.728-0.931-0.786-1.041"/><path d="m696.83 531.06s2.491 2.665 5.105 3.738c0 0-0.244-0.366-0.417-0.468-0.173-0.104-3.08-1.834-4.688-3.27" fill="#e6e7e8"/><path d="m688.49 507.74s4.189-3.039 5.424-3.219c0 0-4.323-0.885-5.823-1.322 0 0 0.871 2.23 0.399 4.541" fill="#fff"/><path d="m684.31 511.03s-2.409-2.264-2.483-5.086c-0.072-2.822 1.162-4.579 1.162-4.579l-0.507-0.145s-2.155 2.192-1.901 4.94c0.253 2.751 1.534 4.647 2.494 5.317 0.362 0.256 0.619 0.182 0.835 0 0.219-0.181 0.4-0.447 0.4-0.447" fill="#fff"/><path d="m685.38 506.79c0.147-0.413 0.522-2.423-0.182-3.78-0.701-1.356-1.572-0.508-1.756-0.144-0.182 0.364-0.47 1.863 0 3.039 0.473 1.175 1.512 2.098 1.938 0.885"/></g><g fill="#e6e7e8"><path d="m686.15 504.66s0.363 0.665 0.363 2.383c0 0 0.692-0.98 0.183-3.075 0 0 0.993 2.205 0.29 4.506 0 0-1.5 1.028-1.793 1.284-0.289 0.254-0.773 0.132-1.027-0.122-0.256-0.253-1.247-1.272-1.466-2.483l0.289 0.291s-0.507-1.285-0.289-2.749c0 0 0.733 3.431 1.792 3.742 0.994 0.291 1.381-0.449 1.575-1.138 0.192-0.691 0.083-2.639 0.083-2.639"/><path d="m688.64 506.03s0.934-0.385 1.618-0.866c0.686-0.478 1.456-1.11 1.456-1.11l2.202 0.466s-1.2 0.138-5.424 3.219c0 0 0.216-1.337 0.148-1.709"/><path d="m683.14 509.62s-0.303 0.682-1.083 0.792c0 0 0.694 0.952 1.159 1.137 0.467 0.184 0.639 0.036 1.094-0.524 0 0-0.844-0.852-1.17-1.405"/></g><g><path d="m678.98 509.54s-0.562-0.945-0.475-2.833c0 0 0.236 1.984 0.755 2.573l-0.28 0.26z"/><path d="m680.04 510.51s-1.301-1.862-1.451-4.529h0.368s0.107 2.278 1.083 4.529" fill="#e6e7e8"/><path d="m680.64 509.36s-0.696-2.293-0.848-4.57c0 0-0.237 0.157-0.237 0.437 0 0.281 0.436 3.184 1.085 4.133" fill="#e6e7e8"/><path d="m689.23 509.06s1.714-1.713 8.13-3.534l0.284 0.633 0.286 0.046s-0.065-0.903-0.243-1.188c-0.175-0.285-0.437-0.154-0.437-0.154s-5.779 1.735-8.02 4.197"/><path d="m704.34 506.67s0.393-0.695-0.06-1.711l0.352-0.02s0.764 1.318 0.16 2.193l-0.452-0.462z" fill="#fff"/><path d="m704.18 506.42-0.261-0.303s-0.02-0.751-0.219-0.922c-0.203-0.173-0.424 0.058-0.444 0.402l-0.313-0.202s0.012-0.353 0.214-0.373c0.201-0.021 0.803-0.021 0.803-0.021s0.543 0.533 0.22 1.419" fill="#939598"/><path d="m703.14 504.72 0.08-0.241s1.879-0.343 3.597-1.078c0 0-0.38 0.935-2.753 1.298-0.343 0.054-0.924 0.021-0.924 0.021"/><path d="m705.54 507.71s0-1.899-0.602-2.875l0.343-0.08s0.802 0.773 0.662 3.216l-0.403-0.261z"/></g><g fill="#e6e7e8"><path d="m674.33 522.46s4.205 5.324 7.03 6.695c2.826 1.37 5.156-0.704 6.067-1.497 0.915-0.794 4.614-4.53 7.442-9.771 0 0-5.908 8.935-8.485 9.353-2.574 0.418-3.527-0.166-3.527-0.166s0.576 0.876 2.364 0.753c0 0-1.997 1.202-5.943-1.624-3.944-2.826-4.614-3.827-4.614-3.827l-0.334 0.084z"/><path d="m678.02 516.72s2.442 0.338 3.55-0.816 2.67-3.008 2.67-3.008-2.807 3.121-4.66 3.214c-1.855 0.088-3.665 0.021-4.886-2.783 0 0 2.67 2.984 4.977 2.124 2.307-0.859 3.845-2.871 4.772-3.664 0.928-0.791 4.411-3.755 6.583-4.952 0.371-0.207 1.74-0.724 2.441-0.86 0 0-4.998 2.465-7.622 5.904-0.436 0.573-3.551 5.157-5.609 5.247s-2.216-0.406-2.216-0.406"/><path d="m697.36 505.53s-7.92 1.972-9.891 5.409c0 0 3.204-2.593 7.332-3.617 0.902-0.224 2.149-0.54 2.793-0.566 0 0 0.2-0.459-0.234-1.226"/><path d="m697.9 504.79h0.256s0.718 1.532 0.64 1.995c-0.13 0.771-1.233 1.668-5.562 5.18 0 0 3.793-3.883 4.461-4.64 0.59-0.669 0.716-1.281 0.205-2.535"/></g><g><path d="m683.46 505.29c0.088 0.559 0.264 0.994 0.392 0.975 0.129-0.021 0.162-0.49 0.074-1.05-0.089-0.555-0.263-0.992-0.393-0.972-0.131 0.02-0.161 0.489-0.073 1.047" fill="#fff"/><path d="m698.32 524.96s3.923-5.399 4.459-8.26c0.259-1.383 0.147-2.693 0.594-1.838 0.447 0.858 1.129 3.175 1.517 3.155 0.39-0.019 0.838-0.448 0.797-1.325-0.037-0.875-0.926-6.007-3.714-8.988 0 0 0.049-1.826-0.335-2.597 0 0 4.277 3.078 6.007 6.346 1.816 3.432-0.385 6.103-2.352 8.17-3.529 3.699-6.973 5.337-6.973 5.337"/><path d="m698.96 524.45s1.995-2.791 2.76-4.583c0 0-0.555 1.889-1.062 2.664 0 0 3.424-2.048 5.769-4.965 0 0-2.088 3.649-7.467 6.884" fill="#e6e7e8"/><path d="m702.6 507.13 0.005 0.439s3.179 2.477 3.946 3.497c0.77 1.018 1.217 2.161 1.119 4.019 0 0 0.86-1.731-0.228-3.596-1.089-1.863-2.008-2.853-4.114-4.737l-0.65-0.098-0.078 0.476z" fill="#e6e7e8"/><path d="m702.7 506.73s1.559 1.263 3.237 3.154c0 0-1.659-2.412-3.338-3.849 0 0-0.361-0.181-0.382-0.04-0.02 0.14 0.062 0.632 0.2 0.934l0.182 0.202 0.101-0.401z"/><path d="m676.04 500.25s1.081 1.575 3.928 0.967c0 0 1.141-1.289 2.527-0.815 1.386 0.472 5.316 1.935 6.817 1.861 0 0-4.046-1.389-5.431-2.889 0 0 4.043 1.958 5.544 1.958l0.608-0.267-0.608-0.57s-3.549-0.817-4.972-3.435c0 0-0.402 1.478-2.453 2.314 0 0 2.109-1.842 2.3-3.189l-0.076-1.272s-2.125 3.961-5.885 4.499c-1.333 0.19-3.115-0.815-5.11-5.39 0 0 0.609 3.986 3.38 5.848 1.159 0.776 2.887 0.037 3.039 0s-1.499 1.064-3.608 0.38"/></g><g fill="#e6e7e8"><path d="m687.6 501.8s-2.22-0.773-4.917-2.23c0 0 0.814 0.988 1.946 1.4 1.131 0.417 2.971 0.83 2.971 0.83"/><path d="m684.03 498.56s3.131 2.386 5 2.58l0.63-0.084-0.797-0.412s-2.281-0.574-4.833-2.084"/><path d="m676.36 500.43s0.978 0.711 2.25 0.435c1.268-0.277 2.634-1.159 3.322-1.731 0.69-0.573 2.147-2.255 2.147-3.132 0 0-1.373 2.47-3.242 2.994s-2.616 0.936-3.573 0.524c-0.959-0.414-1.841-1.152-2.854-2.799 0 0 0.662 1.756 2.172 2.881 1.511 1.126 4.255-0.276 4.255-0.276s-0.992 0.959-2.118 1.152c-1.123 0.195-1.697 0.145-2.359-0.048"/><path d="m698.81 498.58s-0.171-0.389 0.995-0.996c1.166-0.605 2.454-1.336 2.58-1.957 0.123-0.62 2.021-2.034 2.579-2.345 0.557-0.31 0.062-1.041 0.557-1.103 0.499-0.062 1.353 0.358 1.478 0.978 0.124 0.622-2.579 4.195-2.579 4.195l-5.61 1.228z"/></g><g><path d="m703.47 495.71s1.036-0.8 1.509-1.336c0.474-0.535 1.373-1.343 1.789-1.343 0.419 0 0.759 0.383 1.484 1.226 0.722 0.841 0.897 1.209 1.147 1.852 0.25 0.639 0.885 1.926 1.226 2.286 0.341 0.364 0.666 1.011 0.084 1.485-0.587 0.471-2.285 1.286-4.526 1.314-2.24 0.028-5.039-0.146-6.632-0.98-1.592-0.836-1.315-1.845 0.169-2.15 1.48-0.308 3.385-1.056 4.138-1.734 0.281-0.25 0.81-0.675 0.309-0.62-0.502 0.056-0.697 0-0.697 0"/><path d="m708.39 499.57-0.225 0.614s1.539-0.084 1.928-0.92c0.074-0.16 0-0.452 0-0.452s-0.189 0.397-0.862 0.62c-0.676 0.222-0.841 0.138-0.841 0.138" fill="#fff"/><path d="m707.66 498.9s-0.09 0.975-0.813 1.537c0 0-2.179 0.307-4.588-0.139-2.407-0.444-3.157-1.19-3.103-1.336 0.056-0.146 0.897-0.506 1.539-0.674 0 0-0.956 0.506-0.871 0.813l0.229 0.167 1.059-0.306s1.203 0.752 2.687 0.864c1.479 0.111 2.823 0 3.075-0.252l-0.055 0.334s0.674-0.478 0.841-1.008" fill="#fff"/><path d="m684.86 490.22s-0.294-1.163-0.19-1.898c0 0 0.583 0.805 0.942 0.873v0.257s-0.598 0.7-0.752 0.768" fill="#e6e7e8"/><path d="m685.07 488.16s0.257 0.409 0.547 0.531l-0.016-0.7s-0.395 0.15-0.531 0.169" fill="#e6e7e8"/></g><g fill="#fff"><path d="m684.44 490.42s-0.24-1.197-0.102-2.156c0 0-1.3-0.047-2.034-0.424 0 0 0.837 2.185 2.136 2.58"/><path d="m684.04 490.62s-1.729-1.124-2.292-2.494c0 0-1.452 2.545-0.137 5.862 0 0 1.107-2.49 1.899-3.042 0.17-0.12 0.53-0.326 0.53-0.326"/><path d="m680.8 493.26s-0.65-3.333 0.567-5.673c0 0-1.692-1.279-3.317-1.059 0 0-0.36 0.121-0.135 1.026 0.22 0.902 0.903 3.705 2.885 5.706"/><path d="m680.49 494.61s0.672-0.048 0.768-0.265c0 0-3.268-3.17-3.797-6.752 0 0-1.513 4.205 0.865 8.554 0 0 0.408 0.312 0.696 0.121 0.29-0.191 1.251-1.176 1.468-1.658"/></g><g fill="#e6e7e8"><path d="m678.05 495.6s0.179 0.363 0.279 0.545c0 0 0.408 0.312 0.696 0.121 0.29-0.191 1.251-1.176 1.468-1.658 0 0 0.672-0.048 0.768-0.265 0 0-1.769-1.717-2.914-4.051 0 0 0.012 2.499 1.275 3.837 0 0-1.553 1.071-1.572 1.471"/><path d="m680.23 487.75c-0.225 0.554-0.151 3.585-0.151 3.585-0.453-0.351-1.547-1.759-1.547-1.759 0.442 1.156 1.146 2.544 2.268 3.677 0 0-0.65-3.333 0.567-5.673 0 0-0.306-0.232-0.783-0.479 0 0-0.128 0.099-0.354 0.649"/><path d="m682.64 491.03c-0.406 0.175-0.401 0.986-0.778 1.238-0.377 0.25-0.757-0.311-0.757-0.311 0.068 0.63 0.224 1.313 0.508 2.035 0 0 1.107-2.49 1.899-3.042 0.17-0.12 0.53-0.326 0.53-0.326s-1.729-1.124-2.292-2.494l-0.113 0.232c-0.176 1.411 1.003 2.668 1.003 2.668"/><path d="m683.75 490.03c0.21 0.178 0.44 0.316 0.686 0.392 0 0-0.24-1.197-0.102-2.156l-0.695-0.064c-0.163 0.673 0.111 1.828 0.111 1.828"/><path d="m693.74 526.15s4.92-3.869 5.767-6.848c0 0-0.417 3.62-1.981 5.034-1.562 1.414-2.982 1.769-3.786 1.814"/><path d="m697.82 513.57s-0.146-0.577 0.173-0.821c0.32-0.248 2.279-1.661 2.903-1.661 0.625 0 1.169 0.846 1.169 0.846l-0.298 0.567s-0.665-0.419-1.264-0.295c-0.602 0.124-2.683 1.364-2.683 1.364"/></g><g><path d="m697.42 513.12s2.741-2.419 3.552-2.304c0.812 0.114 1.243 1.265 1.243 1.265s-0.88-0.908-1.243-0.862c-0.363 0.045-0.91 0.182-3.552 1.901"/><path d="m698.93 502.01c0.713 0.216 3.563 0.972 8.083 0.831 0 0-2.054 1.131-6.124 1.728 0 0 0.085 2.404 0.488 3.292 0.399 0.887 1.827 2.507 2.425 3.936 0.595 1.431 1.32 4.237 1.346 4.804 0.027 0.57-0.194 1.083-0.46 0.381l-0.051-0.139-0.343-1.465c-0.148-1.497-1.807-5.153-2.985-5.971-1.177-0.819-2.212 0.224-2.573 0.549-0.36 0.322-4.75 4.021-6.656 6.15-1.904 2.131-0.313 1.405 0.281 1.17 0.594-0.234 1.885-0.682 1.885-0.682-1.557 1.01-3.833 2.411-4.367 2.65-0.726 0.325-1.001 0.331-0.544-0.509 0.462-0.839 1.923-3.563 5.644-6.802 3.72-3.238 4.504-3.938 4.696-4.586 0.189-0.65-0.381-2.94-0.649-3.348-0.271-0.405-1.508-0.482-2.481-0.644-0.769-0.128-2.451-0.81-4.145-2.222 0 0 2.902 2.023 7.875 2.256l1.897-0.179s-2.759-0.234-4.479-1.269l1.237 0.069z" fill="#e6e7e8"/><path d="m697.62 511.59s-0.248 0.616-0.248 0.861c0 0 2.229-2.006 3.274-1.907 1.043 0.099 1.168 0.591 1.168 0.591l0.828-0.031-0.532-0.929-1.12-0.725-1.094 0.404-2.276 1.736z" fill="#e6e7e8"/></g><g><path d="m696.99 512.06s2.717-2.918 4.119-2.828c0 0 1.068 0.213 1.538 1.879 0 0-0.924-1.516-1.626-1.47-0.706 0.045-1.904 0.766-4.031 2.419"/><path d="m700.9 507.25s-0.14-2.212-0.462-2.896l-0.534-0.138s0.714 1.797 0.996 3.034"/><path d="m699.65 503.26s2.051 0.512 4.634 0.374l0.756-0.235s-4.013 0.063-5.39-0.139"/></g><g><path d="m707.15 492.15c-0.64-1.927-2.201-4.227-3.124-5.299-0.919-1.073-2.246-2.39-5.206-3.883-2.961-1.492-5.467-1.104-5.467-1.104l-0.139 0.601c-1.31-0.181-3.235 1.95-3.235 1.95s0.343 0.297 0.685 0.479c0.344 0.182 0.307 0.419 0 0.579-1.513 0.792-2.566 3.143-2.566 3.143 0.366-0.158 1.029 0.094 1.029 0.094-0.99 0.364-1.141 1.674-1.098 2.335 0.049 0.663-0.784 1.516-0.92 1.912-0.138 0.397 0.455 1.492 0.455 1.492-1.56-0.501-2.517-2.549-2.517-2.549s-0.183 0.136-1.174 1.011c-0.991 0.878-1.035 1.608-1.332 2.064-0.297 0.458-1.471 0.618-1.517 0.776-0.086 0.311-1.194 1.196-1.194 1.196 0.16 0.273-0.182 0.556-0.685 0.534-2.617-0.119-3.411-4.495-3.411-4.495-0.083 0.997-0.027 2.17 1.193 4.027 1.221 1.855 2.747 1.367 2.747 1.367-1.639 0.572-2.005 0.891-2.991-0.292-1.057-1.268-2.298-3.26-2.405-5.771-0.107-2.515 0.352-5.185 1.728-6.667 1.376-1.487 2.181-2.292 2.724-2.211 0.542 0.082 3.049 2.732 3.673 2.967 0 0-0.813-0.898-0.841-1.244 0 0 2.243 1.083 4.133 0.73 0 0-0.163 1.376-0.136 1.673 0 0-1.889 0.379-3.13-0.134-1.24-0.514-3.217-1.375-3.997-1.404-0.779-0.026-1.774 0.624-2.264 1.756-0.486 1.131-0.514 1.646-0.514 1.646s0.644-1.756 1.35-2.189c0 0-1.405 3.537 0.459 8.232 0 0-1.083-1.002-1.729-2.486 0 0 0.671 2.898 2.541 3.971 0.888 0.508 1.538 0.19 1.349 0.027-0.189-0.164-0.516-0.325-0.516-0.325s0.997-0.645 1.349-1.131c0.354-0.489 0.493-0.407 0.975-0.544 0.482-0.133 1.208-1.721 1.695-2.426 0.488-0.704 1.296-1.32 1.783-1.537s0.921-0.839 0.921-0.839 0.021 1.539 0.644 1.999c0 0-0.677-2.778-0.299-4.86 0.38-2.078 1.678-5.853 4.539-6.34 2.859-0.488 6.741-0.217 9.573 1.728 2.819 1.933 4.997 4.37 6.786 8.302l0.076 1.139z" fill="#e6e7e8"/><path d="m678.09 485.51s0.195-1.361 1.066-1.027c0.872 0.333 1.4 1.301 1.4 1.301s-1.185-0.332-1.636-0.311c-0.449 0.017-0.83 0.037-0.83 0.037" fill="#fff"/><path d="m682.35 485.82s0.261 0.794 1.086 0.91c0.824 0.118 1.242-0.059 1.242-0.059s-0.635-0.458-1.084-0.519c-0.453-0.058-1.244-0.332-1.244-0.332" fill="#fff"/><path d="m712.79 494.32c-0.744-3.38-2.119-5.011-2.937-6.013-0.814-1.001-1.722-1.605-2.821-1.327-1.092 0.279-0.936 1.289-0.936 1.289-0.189-0.315-0.413-0.637-0.68-0.949-0.154-0.176-0.136-0.616 0.271-0.806 0.406-0.189 1.889-0.731 1.889-0.731s0.595-0.075 1.43 0.651c0.834 0.724 3.312 3.235 3.775 7.633l0.009 0.253z" fill="#e6e7e8"/><path d="m691.61 485.8s-0.636 0.164-0.422 0.471c0.214 0.31 0.499 0.281 0.713 0.398 0.213 0.119-0.136 0.404 0.236 0.427 0.376 0.025 0.4-0.325 0.351-0.634-0.047-0.31-0.072-0.619-0.072-0.619l-0.444-0.165-0.362 0.122z" fill="#e6e7e8"/><path d="m691.59 486.18s0.226-0.453 0.518-0.362c0.295 0.09 0.317 0.544 0.317 0.544s0.427-0.566-0.07-0.794c-0.496-0.227-0.699 0.09-0.744 0.228-0.046 0.134-0.021 0.384-0.021 0.384"/><path d="m690.81 489.13s-0.778 0.102-0.493 0.475c0.284 0.374 0.374 0.684 0.541 0.752 0.167 0.074 0.664-0.051 0.497-0.567-0.165-0.518-0.545-0.66-0.545-0.66" fill="#e6e7e8"/><path d="m691 489.96s0.657-0.473 0.272-0.882c-0.385-0.407-0.926-0.022-0.972 0.114 0 0 0.542-0.022 0.678 0.137 0.137 0.158 0.022 0.631 0.022 0.631"/><path d="m673.58 499.92-3.374-6.153s1.376-2.038 1.954-2.495c0 0 0.3 3.853 1.479 5.512 1.178 1.656-0.059 3.136-0.059 3.136" fill="#e6e7e8"/><path d="m673.18 499.21s-1.372-2.863-1.444-4.449c-0.071-1.586-0.142-2.816-0.142-2.816l-1.391 1.826 2.977 5.439z" fill="#fff"/><path d="m686.96 483.12s-0.269 1.237-0.781 1.4c-0.509 0.165-3.751 0.718-5.329-0.508 0 0 2.254-0.836 3.984-0.906 1.729-0.07 2.126 0.014 2.126 0.014" fill="#fff"/><path d="m682.8 484.72c-0.724-0.095-1.425-0.303-1.945-0.709 0 0 2.254-0.836 3.984-0.906 1.729-0.07 2.126 0.014 2.126 0.014l-0.192 0.623c-2.363-0.225-3.973 0.978-3.973 0.978" fill="#e6e7e8"/></g><g fill="#fff"><path d="m662.81 495.2 3.988-0.67-0.624-1.002-2.095 1.271 1.895-1.628-0.266-0.599-2.898 2.628z"/><path d="m668.43 489.92s1.026 0.957 2.251 0.044c1.228-0.911 1.182-2.005 1.182-2.005l-0.626 0.331s-0.137 0.951-1.018 1.516c0 0 0.507-0.889 0.507-1.068 0 0-1.939 1.138-2.296 1.182"/><path d="m674.84 485.02s0.422 0.308 0.779 0.155l1.029-1.315s0-0.87-0.092-1.047c0 0-1.358 1.873-1.716 2.207"/></g><g><path d="m676.9 483.59-0.064-1.093 0.197-0.555s0.626 0.271 0.359 1.314l-0.492 0.334z" fill="#e6e7e8"/><path d="m88.547 67.828s-2.7791 2.1773-4.0703 3.9336c-1.2937 1.7562-1.002 7.6973-1.002 7.6973l0.48242-0.58008c0.28875-1.7738 1.291-3.2402 1.291-3.2402-0.28875 0.63625-0.40625 2.5254-0.40625 2.5254 3.1625-5.225 3.7051-10.336 3.7051-10.336zm28.211 1.9707s-2.0296 2.6273-2.4434 3.4961c-0.41 0.86875 0.4375 2.7422 0.4375 2.7422 0.0463-0.6625 0.66602-1.4043 0.66602-1.4043-0.47 0.85375-0.33203 1.8125-0.33203 1.8125 0.54375-0.2325 0.99101-1.9408 1.4473-3.4258 0.4575-1.4862 0.22461-3.2207 0.22461-3.2207zm-37.174 42.871c-0.55347-0.008-0.68555 0.4707-0.68555 0.4707l-3.1758 6.4941c1.1162 0.11125 2.4512 0.5 2.4512 0.5s1.9206-1.5868 3.7344-0.2793c2.615 1.8912 2.2559 3.8477 2.2559 3.8477 0.38875 0.22125 2.0898 2.1445 2.0898 2.1445l0.94727-0.39063c-2.0325-1.98-5.8777-7.968-6.7715-9.7793-0.89375-1.8112-0.33594-1.8691-0.33594-1.8691 0.05625 0.3925 0.39258 0.55859 0.39258 0.55859l0.61328-0.94922c-0.69937-0.56484-1.1835-0.74339-1.5156-0.74804zm14.303 15.906c-1.4325 2.1612-2.9512 1.1172-2.9512 1.1172 0.335 1.3625-0.66992 1.9199-0.66992 1.9199l0.72656 1.4766 3.4551 0.95117-0.83789-0.78125c-0.28-0.44625-0.27922-2.0888 0.61328-2.5938 2.1788-1.2225 3.1211 0.0566 3.1211 0.0566l2.5898 6.4356 1.1973 0.83789c3.3425 0.0575 6.1602-1.7305 6.1602-1.7305l-3.0664 0.11133c-0.80625-0.2225-1.2238-1.5863-0.78125-2.8926 0.44875-1.3125 1.9824-1.3125 1.9824-1.3125-1.9812-0.58-3.0098-2.4785-3.0098-2.4785-4.5413 0.6125-8.5293-1.1172-8.5293-1.1172z" transform="matrix(.8 0 0 -.8 605.3 586.29)" fill="#c00"/><path d="m683.32 477.79-1.049 0.535-1.493 1.985s-0.319 0.949 0.739 1.254c1.061 0.305 1.502-0.186 1.7-0.753 0.197-0.571 1.52-3.809 1.52-3.809l-1.035 0.643-1.662 2.668s-0.438 0.824 0.065 1.04c0 0-0.778-0.003-0.672-0.704 0.054-0.353 1.887-2.859 1.887-2.859" fill="#fff"/><path d="m694.61 478.19-5.038-0.288s-1.238-0.21-1.251 0.669c-0.014 0.882 0.675 1.552 1.155 1.565 0.477 0.015 5.134-1.946 5.134-1.946" fill="#fff"/><path d="m675.36 480.5s1.094-0.178 1.597-0.323c0 0-1.694 6.352-8.24 9.082-5.275 2.2-7.458-0.854-8.159-2.509 0 0 1.413 2.876 5.094 2.51 0 0-2.306-0.501-2.922-2.192 0 0 2.113 2.731 5.497 0.886 3.385-1.848 6.578-5.256 7.133-7.454" fill="#e6e7e8"/><path d="m687.18 475.43s2.785-1.889 3.493-2.719c0 0 3.365 0.762 3.899 0.762 0 0-2.712 2.603-3.842 2.723-1.129 0.118-1.597-0.409-1.953-0.47-0.355-0.06-1.597-0.296-1.597-0.296" fill="#e6e7e8"/><path d="m691.63 472.94s-0.988 1.3-1.513 1.613c-0.526 0.313 0.174 0.6 0.775 0.425 0.602-0.176 2.815-1.613 2.815-1.613l-2.077-0.425z" fill="#fff"/><path d="m689.01 471.12s3.396 2.2 6.677 1.811c0 0-0.318-2.217-0.294-2.985 0 0-0.839-0.274-1.065-0.364 0 0-2.523 0.562-3.937 0.297-0.36-0.068-0.79-0.416-0.903-0.275-0.113 0.139 0.543 0.593 0.543 0.746 0 0.16-0.138 0.362-0.408 0.477-0.271 0.112-0.613 0.293-0.613 0.293"/><path d="m694.68 472.97s-0.337-0.117-0.069-0.613c0.272-0.496 0.272-0.81-0.089-0.857-0.361-0.043-2.846-0.003-3.483-0.365-0.636-0.362-0.817-0.54-0.817-0.54s-0.38 0.245-0.36 0.519c0.022 0.274 0.224 0.612 0.224 0.612s2.808 1.312 4.594 1.244" fill="#e6e7e8"/><path d="m696.86 478.38-0.468-0.021c0.447-0.384 1.578-1.687 1.578-1.687-0.338-0.574-0.571-1.814-0.571-1.814s0.339 0.766 0.532 1.09c0.19 0.324 0.487-0.043 0.876-0.303 0.39-0.262 0.235-0.533 0.235-0.533-1.517-1.58-1.795-4.25-1.795-4.25 0.202 1.115 0.979 2.246 1.455 2.945 0.609 0.904 0.995-0.123 1.469-1.61 1.157-3.627 0.05-7.388 0.05-7.388 0-0.878 1.305-0.952 1.305-0.952 0.417 0.531 0.436 1.405 0.436 2.442 0 1.638 0.033 6.346-3.128 10.664-1.839 2.518-3.377 3.126-3.367 3.126 0.35 0 1.393-1.709 1.393-1.709" fill="#e6e7e8"/><path d="m690.01 472.54c0.54 0-4.074 3.779-9.278 5.811-5.202 2.026-7.087 2.276-10.57 1.291-1.733-0.491-3.075-3.272-3.027-4.81 0 0-0.1-1.736 0.163-2.978 0.263-1.246 1.231-1.511 1.231-1.511l0.585-0.028s0.066 1.098 0.411 1.343c0 0-0.098 5.594 3.615 7.183 0 0-3.19-2.34-2.683-6.105 0 0-0.065-1.275 0.246-2.616 0.312-1.344 1.599-1.601 1.599-1.601s0.527-0.231 1.133-0.231c0 0-0.49 6.836 3.878 8.376 0 0-4.319-3.373-2.78-7.641 0 0 0.703-0.098 1.095-1.046 0.394-0.95 1.079-1.638 0.883-2.028 0 0 2.732-2.914 6.955-0.837 4.22 2.078 3.516 6.447 3.516 6.447s-0.802 2.209-1.096 2.571c0 0 1.177-1.277 1.685-2.521 0 0 1.9 0.931 2.439 0.931" fill="#fff"/></g><g fill="#e6e7e8"><path d="m684.46 476.4c0.566-0.35 3.478-3.228 3.478-3.228-0.197 0.035-1.239-0.051-1.239-0.051 0.317-0.443 0.656-0.978 0.873-1.51 0 0 1.9 0.931 2.439 0.931 0.385 0-1.844 1.917-5.036 3.751l-0.515 0.107z"/><path d="m675.38 474.5c-0.905-1.38-1.482-3.582-0.972-5.693 0 0 0.164-0.505 0.513-1.471 0.256-0.704 1.664-1.729 1.664-1.729s2.653-2.573 6.876-0.496c4.22 2.078 3.516 6.447 3.516 6.447s-0.195 0.532-0.413 1.121c0 0 0.412-4.332-2.712-5.917-3.125-1.587-4.614-0.962-5.336-0.866-0.707 0.093-1.24 0.782-1.74 1.118 0 0-0.576 0.768-0.77 1.152-0.156 0.312-0.517 1.432-0.517 1.432s-0.528 2.016-0.385 3.074c0.144 1.058 0.276 1.828 0.276 1.828"/><path d="m670.2 476.9c-0.82-0.817-1.444-1.778-1.444-1.778-1.035-1.805-1.643 0.016-1.643 0.016-0.176-0.648-0.131-1.948-0.079-3.011 0.065-1.276 1.325-1.947 1.325-1.947l1.348-0.67s-0.195 1.503-0.19 2.146c0 0-0.089 5.053 3.089 6.917 0 0-1.59-0.854-2.406-1.673"/><path d="m674.34 474.98c-1.155-1.011-1.876-3.27-1.876-3.27-0.993-1.048-1.984 0.614-1.984 0.614-0.065-0.446 0.037-1.27 0.094-1.632 0.288-1.789 1.535-2.555 1.535-2.555s0.719-0.298 1.324-0.298c0 0-0.479 7.141 3.743 8.774 0 0-1.683-0.625-2.836-1.633"/></g><g><path d="m701.8 482.76s2.869 2.944 3.245 3.753c0 0 0.608-0.592 1.243-0.761 0.632-0.169 0.759-0.609 0.549-0.778-0.213-0.169-1.407-0.904-2.612-1.014-0.467-0.042-0.989-0.861-1.325-1.031-0.342-0.169-1.1-0.169-1.1-0.169" fill="#fff"/><path d="m705.84 484.85c0.253 0.214 0 0.316-0.508 0.4-0.67 0.111-1.824-0.655-1.824-0.655 0.689 0.765 1.36 1.558 1.53 1.922 0 0 0.608-0.592 1.243-0.761 0.632-0.169 0.759-0.609 0.549-0.778-0.213-0.169-1.407-0.904-2.612-1.014-0.021-0.002-0.04-0.005-0.058-0.009 0 0 1.426 0.685 1.68 0.895" fill="#e6e7e8"/><path d="m692.23 488.16s-0.777 0.101-0.493 0.475c0.283 0.375 0.376 0.683 0.539 0.753 0.167 0.072 0.666-0.051 0.5-0.569-0.165-0.517-0.546-0.659-0.546-0.659" fill="#e6e7e8"/><path d="m691.74 488.46s0.247-0.609 0.699-0.473c0.453 0.135 0.7 0.743 0.136 1.039 0 0 0.045-0.59-0.227-0.635-0.267-0.045-0.608 0.069-0.608 0.069"/><path d="m692.95 489.43s-0.636 0.162-0.422 0.473c0.212 0.306 0.496 0.277 0.71 0.396 0.215 0.12-0.136 0.405 0.24 0.429 0.373 0.023 0.396-0.327 0.35-0.637-0.049-0.308-0.071-0.616-0.071-0.616l-0.448-0.167-0.359 0.122z" fill="#e6e7e8"/><path d="m693.14 489.42s0.544-0.182 0.724-0.024c0.182 0.16 0.138 0.722-0.382 0.837 0 0 0.16-0.428 0.069-0.564s-0.411-0.249-0.411-0.249"/><path d="m692.22 490.64s-0.621 0.062-0.394 0.301c0.229 0.243 0.3 0.438 0.433 0.484s0.532-0.033 0.4-0.365c-0.134-0.33-0.439-0.42-0.439-0.42" fill="#e6e7e8"/><path d="m692.11 490.66s0.542-0.249 0.768 0.091c0.228 0.341-0.312 0.79-0.608 0.7 0 0 0.338-0.271 0.248-0.475-0.091-0.203-0.408-0.316-0.408-0.316"/></g><g fill="#e6e7e8"><path d="m664.08 494.8 1.895-1.628-0.266-0.599-2.898 2.628 1.269-0.401z"/><path d="m668.48 489.96s0.971 0.898 2.197 0c1.234-0.903 1.182-2.005 1.182-2.005l-0.626 0.331s-0.13 0.903-0.952 1.473c0 0-0.885 0.358-1.801 0.201"/><path d="m681.98 481.35c-0.211-0.034-0.632-0.167-0.552-0.694 0.054-0.353 1.887-2.859 1.887-2.859l-1.049 0.535-1.493 1.985s-0.336 1.009 0.739 1.254c1.128 0.258 1.321-0.154 1.321-0.154-0.715 0.034-0.853-0.067-0.853-0.067"/><path d="m694.61 478.19-5.038-0.288s-1.238-0.21-1.251 0.669c-0.014 0.88 0.668 1.547 1.16 1.565 0 0-0.432-0.457-0.483-0.872-0.047-0.414 0.247-0.537 1.525-0.611 1.274-0.074 2.7-0.122 2.7-0.122l1.387-0.341z"/></g><path d="m689.18 479.66s-0.257-0.72 0.25-0.772c0.505-0.057 3.926-0.382 3.926-0.382l-3.884 0.04s-0.679-0.033-0.57 0.458c0.11 0.491 0.278 0.656 0.278 0.656"/><path d="m682.72 504.78s1.023 4.798 3.324 4.07l-1.189 0.769s-2.114-0.871-2.135-4.839" fill="#fff"/></g></g></svg>
