<svg width="680" height="204" viewBox="0 0 680 204" fill="none" xmlns="http://www.w3.org/2000/svg">
<circle cx="7.5" cy="7.5" r="7.5" fill="#D7F5F2"/>
<circle cx="42.5" cy="7.5" r="7.5" fill="#D7F5F2"/>
<circle cx="77.5" cy="7.5" r="7.5" fill="#D7F5F2"/>
<circle cx="112.5" cy="7.5" r="7.5" fill="#D7F5F2"/>
<circle cx="147.5" cy="7.5" r="7.5" fill="#D7F5F2"/>
<circle cx="182.5" cy="7.5" r="7.5" fill="#D7F5F2"/>
<circle cx="217.5" cy="7.5" r="7.5" fill="#D7F5F2"/>
<circle cx="252.5" cy="7.5" r="7.5" fill="#D7F5F2"/>
<circle cx="287.5" cy="7.5" r="7.5" fill="#D7F5F2"/>
<circle cx="322.5" cy="7.5" r="7.5" fill="#D7F5F2"/>
<circle cx="357.5" cy="7.5" r="7.5" fill="#D7F5F2"/>
<circle cx="392.5" cy="7.5" r="7.5" fill="#D7F5F2"/>
<circle cx="427.5" cy="7.5" r="7.5" fill="#D7F5F2"/>
<circle cx="462.5" cy="7.5" r="7.5" fill="#D7F5F2"/>
<circle cx="497.5" cy="7.5" r="7.5" fill="#D7F5F2"/>
<circle cx="532.5" cy="7.5" r="7.5" fill="#D7F5F2"/>
<circle cx="567.5" cy="7.5" r="7.5" fill="#D7F5F2"/>
<circle cx="602.5" cy="7.5" r="7.5" fill="#D7F5F2"/>
<circle cx="637.5" cy="7.5" r="7.5" fill="#D7F5F2"/>
<circle cx="672.5" cy="7.5" r="7.5" fill="#D7F5F2"/>
<circle cx="7.5" cy="62.5" r="7.5" fill="#D7F5F2"/>
<circle cx="42.5" cy="62.5" r="7.5" fill="#D7F5F2"/>
<circle cx="77.5" cy="62.5" r="7.5" fill="#D7F5F2"/>
<circle cx="112.5" cy="62.5" r="7.5" fill="#D7F5F2"/>
<circle cx="147.5" cy="62.5" r="7.5" fill="#D7F5F2"/>
<circle cx="182.5" cy="62.5" r="7.5" fill="#D7F5F2"/>
<circle cx="217.5" cy="62.5" r="7.5" fill="#D7F5F2"/>
<circle cx="252.5" cy="62.5" r="7.5" fill="#D7F5F2"/>
<circle cx="287.5" cy="62.5" r="7.5" fill="#D7F5F2"/>
<circle cx="322.5" cy="62.5" r="7.5" fill="#D7F5F2"/>
<circle cx="357.5" cy="62.5" r="7.5" fill="#D7F5F2"/>
<circle cx="392.5" cy="62.5" r="7.5" fill="#D7F5F2"/>
<circle cx="427.5" cy="62.5" r="7.5" fill="#D7F5F2"/>
<circle cx="462.5" cy="62.5" r="7.5" fill="#D7F5F2"/>
<circle cx="497.5" cy="62.5" r="7.5" fill="#D7F5F2"/>
<circle cx="532.5" cy="62.5" r="7.5" fill="#D7F5F2"/>
<circle cx="567.5" cy="62.5" r="7.5" fill="#D7F5F2"/>
<circle cx="602.5" cy="62.5" r="7.5" fill="#D7F5F2"/>
<circle cx="637.5" cy="62.5" r="7.5" fill="#D7F5F2"/>
<circle cx="672.5" cy="62.5" r="7.5" fill="#D7F5F2"/>
<circle cx="7.5" cy="117.5" r="7.5" fill="#D7F5F2"/>
<circle cx="42.5" cy="117.5" r="7.5" fill="#D7F5F2"/>
<circle cx="77.5" cy="117.5" r="7.5" fill="#D7F5F2"/>
<circle cx="112.5" cy="117.5" r="7.5" fill="#D7F5F2"/>
<circle cx="147.5" cy="117.5" r="7.5" fill="#D7F5F2"/>
<circle cx="182.5" cy="117.5" r="7.5" fill="#D7F5F2"/>
<circle cx="217.5" cy="117.5" r="7.5" fill="#D7F5F2"/>
<circle cx="252.5" cy="117.5" r="7.5" fill="#D7F5F2"/>
<circle cx="287.5" cy="117.5" r="7.5" fill="#D7F5F2"/>
<circle cx="322.5" cy="117.5" r="7.5" fill="#D7F5F2"/>
<circle cx="357.5" cy="117.5" r="7.5" fill="#D7F5F2"/>
<circle cx="392.5" cy="117.5" r="7.5" fill="#D7F5F2"/>
<circle cx="427.5" cy="117.5" r="7.5" fill="#D7F5F2"/>
<circle cx="462.5" cy="117.5" r="7.5" fill="#D7F5F2"/>
<circle cx="497.5" cy="117.5" r="7.5" fill="#D7F5F2"/>
<circle cx="532.5" cy="117.5" r="7.5" fill="#D7F5F2"/>
<circle cx="567.5" cy="117.5" r="7.5" fill="#D7F5F2"/>
<circle cx="602.5" cy="117.5" r="7.5" fill="#D7F5F2"/>
<circle cx="637.5" cy="117.5" r="7.5" fill="#D7F5F2"/>
<circle cx="672.5" cy="117.5" r="7.5" fill="#D7F5F2"/>
<circle cx="7.5" cy="172.5" r="7.5" fill="#D7F5F2"/>
<circle cx="42.5" cy="172.5" r="7.5" fill="#D7F5F2"/>
<circle cx="77.5" cy="172.5" r="7.5" fill="#D7F5F2"/>
<circle cx="112.5" cy="172.5" r="7.5" fill="#D7F5F2"/>
<circle cx="147.5" cy="172.5" r="7.5" fill="#D7F5F2"/>
<circle cx="182.5" cy="172.5" r="7.5" fill="#D7F5F2"/>
<circle cx="217.5" cy="172.5" r="7.5" fill="#D7F5F2"/>
<circle cx="252.5" cy="172.5" r="7.5" fill="#D7F5F2"/>
<circle cx="287.5" cy="172.5" r="7.5" fill="#D7F5F2"/>
<circle cx="322.5" cy="172.5" r="7.5" fill="#D7F5F2"/>
<circle cx="357.5" cy="172.5" r="7.5" fill="#D7F5F2"/>
<circle cx="392.5" cy="172.5" r="7.5" fill="#D7F5F2"/>
<circle cx="427.5" cy="172.5" r="7.5" fill="#D7F5F2"/>
<circle cx="462.5" cy="172.5" r="7.5" fill="#D7F5F2"/>
<circle cx="497.5" cy="172.5" r="7.5" fill="#D7F5F2"/>
<circle cx="532.5" cy="172.5" r="7.5" fill="#D7F5F2"/>
<circle cx="567.5" cy="172.5" r="7.5" fill="#D7F5F2"/>
<circle cx="602.5" cy="172.5" r="7.5" fill="#D7F5F2"/>
<circle cx="637.5" cy="172.5" r="7.5" fill="#D7F5F2"/>
<circle cx="672.5" cy="172.5" r="7.5" fill="#D7F5F2"/>
</svg>
