<svg width="156" height="37" viewBox="0 0 156 37" fill="none" xmlns="http://www.w3.org/2000/svg">
<g id="Layer_1" clip-path="url(#clip0_2218_1214)">
<path id="Vector" d="M16.1071 22.8607V30.3224H10.6293V7.59863H20.7684C23.4053 7.59863 25.4807 8.19866 26.9906 9.40299C28.5004 10.6073 29.2574 12.4717 29.2574 14.9918C29.2574 17.5119 28.5004 19.4534 26.9906 20.8163C25.4807 22.1792 23.4053 22.8607 20.7684 22.8607H16.1029H16.1071ZM16.1071 18.6005H20.0964C20.6791 18.6005 21.181 18.5233 21.602 18.3605C22.0188 18.2019 22.3505 17.9747 22.5972 17.679C22.8439 17.3833 23.031 17.0361 23.1544 16.6418C23.2777 16.2475 23.3415 15.819 23.3415 15.3646C23.3415 14.8203 23.2777 14.3446 23.1544 13.9332C23.031 13.5217 22.8439 13.1617 22.5972 12.8445C22.3505 12.5274 22.0188 12.2874 21.602 12.1288C21.1852 11.9702 20.6834 11.8888 20.0964 11.8888H16.1071V18.6005Z" fill="#24223C"/>
<path id="Vector_2" d="M31.7752 30.3224V7.59863H37.3509L45.0913 18.4676L42.1185 18.5705L50.1311 7.60292H55.5707V30.3267H50.0929V11.7517L51.1731 13.5217L43.4667 23.8464L35.8283 13.3546L37.0106 12.536V30.3181H31.7709L31.7752 30.3224Z" fill="#24223C"/>
<path id="Vector_3" d="M60.282 30.3224V7.59863H71.2675C73.8151 7.59863 75.8097 8.19437 77.2515 9.38584C78.6932 10.5773 79.4163 12.3902 79.4163 14.8203C79.4163 15.819 79.2121 16.8004 78.8081 17.7647C78.3998 18.7291 77.8044 19.5605 77.0176 20.2506C76.2265 20.9449 75.2356 21.3906 74.0405 21.5963L73.7002 19.7234L80.5646 30.3181H73.6024L67.9587 20.4048L70.3914 22.4835H65.7599V30.3181H60.282V30.3224ZM65.7599 18.4333H70.3574C71.327 18.4333 72.0926 18.1719 72.654 17.649C73.2154 17.1261 73.5003 16.2647 73.5003 15.0603C73.5003 14.0146 73.2452 13.2217 72.739 12.6774C72.2329 12.1331 71.5142 11.8588 70.5913 11.8588H65.7556V18.4333H65.7599Z" fill="#24223C"/>
<path id="Vector_4" d="M90.0402 30.8328C88.3263 30.8328 86.8122 30.4728 85.4938 29.757C84.1754 29.0413 83.1504 28.0212 82.4189 26.6926C81.6873 25.364 81.3216 23.7825 81.3216 21.9396C81.3216 18.9395 82.0616 16.6208 83.5374 14.975C85.0132 13.3292 87.1269 12.5063 89.8744 12.5063C91.767 12.5063 93.2938 12.9178 94.4549 13.7321C95.6159 14.5464 96.4665 15.7422 97.0067 17.3108C97.5468 18.8795 97.8062 20.7867 97.785 23.0325H84.7708L84.2306 19.7966H93.6298L92.8855 21.3995C92.8642 19.5609 92.6048 18.2666 92.1072 17.5165C91.6139 16.7665 90.8015 16.3936 89.6745 16.3936C89.045 16.3936 88.4751 16.5522 87.9648 16.8694C87.4587 17.1865 87.0631 17.7137 86.7824 18.4509C86.5017 19.188 86.3614 20.2038 86.3614 21.4981C86.3614 23.1353 86.7527 24.3954 87.5267 25.2783C88.305 26.1654 89.5511 26.6069 91.2651 26.6069C91.8945 26.6069 92.5197 26.534 93.1407 26.384C93.7616 26.2383 94.34 26.0626 94.8802 25.8569C95.4203 25.6511 95.8839 25.4711 96.2666 25.3126V29.6713C95.4543 30.0142 94.5484 30.2927 93.5447 30.507C92.541 30.7213 91.3757 30.8328 90.0445 30.8328H90.0402Z" fill="#24223C"/>
<path id="Vector_5" d="M107.55 30.8324C106.512 30.8324 105.538 30.7339 104.628 30.541C103.714 30.3481 102.914 30.031 102.225 29.5853C101.536 29.1438 101.004 28.5395 100.622 27.7809C100.239 27.0223 100.048 26.0708 100.048 24.9351C100.048 23.8679 100.264 22.9379 100.707 22.1407C101.149 21.3435 101.817 20.7306 102.718 20.302C103.62 19.8735 104.756 19.6549 106.134 19.6549C106.899 19.6549 107.643 19.732 108.362 19.8949C109.081 20.0577 109.732 20.2678 110.306 20.542C110.88 20.8163 111.339 21.1078 111.675 21.4292L111.879 23.8808C111.429 23.6065 110.888 23.3922 110.259 23.2336C109.63 23.075 108.949 22.9936 108.23 22.9936C107.125 22.9936 106.321 23.1607 105.81 23.4864C105.304 23.8165 105.049 24.3308 105.049 25.0379C105.049 25.4708 105.172 25.8565 105.419 26.1951C105.666 26.538 105.997 26.7951 106.414 26.9794C106.831 27.1637 107.265 27.2537 107.716 27.2537C108.864 27.2537 109.668 27.1766 110.131 27.0137C110.595 26.8509 110.825 26.538 110.825 26.058V19.7234C110.825 18.6777 110.493 17.9234 109.829 17.4562C109.166 16.9933 108.226 16.7576 107.005 16.7576C106.015 16.7576 105.015 16.9333 104.016 17.2848C103.012 17.6362 102.195 18.0648 101.566 18.562V14.0661C102.153 13.7018 103.059 13.3632 104.288 13.046C105.517 12.7289 106.895 12.5703 108.43 12.5703C108.97 12.5703 109.566 12.6175 110.221 12.7075C110.876 12.7975 111.531 12.9646 112.181 13.2003C112.832 13.4403 113.436 13.7875 113.989 14.2418C114.542 14.6961 114.984 15.2747 115.324 15.9776C115.665 16.6805 115.83 17.5548 115.83 18.6005L115.796 26.7437C115.796 27.7209 115.469 28.5095 114.818 29.1138C114.163 29.7138 113.223 30.151 111.994 30.4253C110.765 30.6996 109.285 30.8367 107.55 30.8367V30.8324Z" fill="#24223C"/>
<path id="Vector_6" d="M127.701 30.8328C126.369 30.8328 125.149 30.6827 124.03 30.3913C122.916 30.0956 121.95 29.6027 121.138 28.9084C120.326 28.2141 119.688 27.2669 119.229 26.0626C118.769 24.8582 118.535 23.3625 118.535 21.5667C118.535 18.7723 119.22 16.5693 120.581 14.9579C121.942 13.3464 123.988 12.5406 126.714 12.5406C127.075 12.5406 127.547 12.5706 128.134 12.6263C128.717 12.682 129.325 12.8278 129.959 13.0506C130.593 13.2735 131.154 13.6635 131.647 14.2078L130.635 15.7765V8.73047H135.637V25.8268C135.637 26.6669 135.411 27.3998 134.96 28.0255C134.51 28.6512 133.906 29.1655 133.153 29.577C132.396 29.9841 131.545 30.297 130.601 30.5156C129.653 30.7299 128.683 30.8413 127.692 30.8413L127.701 30.8328ZM127.905 26.5726C128.717 26.5726 129.376 26.4654 129.882 26.2469C130.388 26.0326 130.644 25.7068 130.644 25.274V17.3365C130.235 17.1094 129.806 16.9336 129.342 16.8094C128.879 16.6851 128.436 16.6208 128.007 16.6208C127.058 16.6208 126.259 16.7794 125.608 17.0965C124.953 17.4137 124.464 17.9494 124.137 18.6994C123.809 19.4495 123.647 20.4609 123.647 21.7295C123.647 22.7282 123.784 23.5853 124.056 24.3011C124.328 25.0168 124.77 25.574 125.391 25.9726C126.012 26.3711 126.85 26.5683 127.909 26.5683L127.905 26.5726Z" fill="#24223C"/>
<path id="Vector_7" d="M142.714 37.0002C142.152 37.0002 141.599 36.9445 141.055 36.8287C140.515 36.713 140.051 36.5673 139.669 36.3873V32.2643C140.03 32.4014 140.366 32.4957 140.685 32.5514C141 32.6071 141.327 32.6371 141.663 32.6371C142.225 32.6371 142.714 32.5043 143.135 32.2471C143.551 31.9857 143.896 31.5442 144.164 30.9185C144.436 30.2928 144.649 29.4485 144.806 28.3813L144.908 31.2785L137.572 13.085H143.352L147.239 25.1797H146.733L150.586 13.085H155.996L149.268 30.5971C148.659 32.1871 148 33.4472 147.29 34.3772C146.58 35.3072 145.84 35.9801 145.074 36.3873C144.309 36.7944 143.517 37.0002 142.709 37.0002H142.714Z" fill="#24223C"/>
<g id="Group">
<path id="Vector_8" d="M127.075 0.0129164C126.799 1.95013 127.245 3.82306 128.492 5.19026C129.738 6.55745 131.55 7.16605 133.489 7.05462C133.765 5.1174 133.319 3.24447 132.073 1.87727C130.827 0.510078 129.015 -0.0985165 127.075 0.0129164Z" fill="#06B7A7"/>
<path id="Vector_9" d="M139.205 0.0129164C139.481 1.95013 139.035 3.82306 137.789 5.19026C136.543 6.55745 134.731 7.16605 132.791 7.05462C132.515 5.1174 132.962 3.24447 134.208 1.87727C135.454 0.510078 137.266 -0.0985165 139.205 0.0129164Z" fill="#8CC63F"/>
</g>
</g>
<defs>
<clipPath id="clip0_2218_1214">
<rect width="156" height="37" fill="white"/>
</clipPath>
</defs>
</svg>
